<svg id="Layer_1" enable-background="new 0 0 512 512" viewBox="0 0 512 512" xmlns="http://www.w3.org/2000/svg"><g id="Layer_2_1_"><g id="Layer_1-2"><g id="_01.Russian_ruble"><g id="Icon"><path d="m224.4 411.1h-58.9c-7.4 0-10.7-3.4-10.7-11.1v-38.8h-23.9c-6.8 0-11.1-4.1-11.1-10.7v-27c0-6.6 4.3-10.7 11.1-10.7h23.9v-28.4h-23.9c-6.8 0-11.1-4.1-11.1-10.7v-26.6c0-6.6 4.3-10.7 11.1-10.7h23.9v-120.5c0-2.8 1-9.3 10.2-10.3h.1c38.1-3.1 75.7-4.6 111.8-4.6 42.9 0 73 7.2 89.6 21.4 17.1 14.2 25.7 41.1 25.7 79.9 0 41.5-7.6 64.1-26.3 78.1-20.6 15.4-49.3 18.5-88.9 18.5h-41.9v13.9h61.5c6.8 0 11.1 4.1 11.1 10.7v27c0 6.6-4.3 10.7-11.1 10.7h-61.5v38.8c0 7.7-3.3 11.1-10.7 11.1zm-59.6-10h.7 58.9.7c0-.3 0-.6 0-1.1v-48.8h71.5c.5 0 .9 0 1.1-.1 0-.1 0-.3 0-.6v-27c0-.3 0-.5 0-.6-.2 0-.5-.1-1.1-.1h-71.5v-33.9h51.9c44.3 0 66.8-4.5 82.9-16.5 16-12 22.3-31.6 22.3-70.1 0-35.7-7.5-60-22.2-72.3-14.7-12.7-42.7-19-83.1-19-35.8 0-73.1 1.5-110.9 4.6-.6.1-.9.1-1.2.2v.1 130.5h-33.9c-.5 0-.9 0-1.1.1v.6 26.6.6c.2 0 .5.1 1.1.1h33.9v48.4h-33.9c-.5 0-.9 0-1.1.1v.6 27 .6c.2 0 .5.1 1.1.1h33.9v48.8zm104.5-154.7h-44.2v-84.1h44.2c20 0 32.8 2.6 40.2 8.2 7.8 5.5 11.5 16.6 11.5 33.7 0 17.4-3.6 28.4-11.5 34.4l-.1.1c-6.9 5.2-20.1 7.7-40.1 7.7zm-34.2-10h34.2c22.9 0 31.3-3.6 34.3-5.8 5.1-3.9 7.5-12.6 7.5-26.4 0-13.5-2.5-22.1-7.4-25.6l-.1-.1c-5.5-4.1-17-6.2-34.3-6.2h-34.2z"></path></g></g></g></g></svg>